<?xml version="1.0" encoding="UTF-8" standalone="no"?>
<!DOCTYPE svg PUBLIC "-//W3C//DTD SVG 1.1//EN" "http://www.w3.org/Graphics/SVG/1.1/DTD/svg11.dtd">
<svg xmlns="http://www.w3.org/2000/svg" version="1.1" viewBox="0.00 0.00 1024.00 683.00">
<g stroke-width="2.00" fill="none" stroke-linecap="butt">
<path stroke="#838383" vector-effect="non-scaling-stroke" d="
  M 355.41 406.20
  C 353.62 400.13 352.16 396.44 351.06 391.20
  C 344.41 359.48 350.08 328.44 366.49 300.59
  Q 366.72 300.20 367.55 298.56
  Q 368.44 296.81 369.41 295.37
  Q 385.39 271.82 405.59 255.60
  Q 442.12 226.26 487.74 216.21
  Q 491.58 215.37 501.95 213.60
  C 504.81 213.11 508.45 211.66 509.84 209.60
  Q 515.26 201.57 523.57 199.36
  Q 538.02 195.51 548.32 205.00
  C 559.09 214.92 557.35 232.61 546.10 240.94
  C 535.79 248.58 519.35 247.40 511.34 236.46
  C 507.33 230.98 502.50 230.63 496.39 231.61
  Q 485.27 233.40 473.56 237.27
  C 432.68 250.78 395.26 279.33 376.24 318.50
  C 360.36 351.19 358.32 389.60 375.67 422.10
  Q 385.75 441.00 398.25 452.97
  Q 444.76 497.49 509.81 500.02
  Q 564.55 502.14 610.06 473.43
  C 646.49 450.45 673.63 414.37 684.27 372.77
  Q 695.65 328.30 682.71 285.50
  Q 677.98 269.86 671.07 257.31
  Q 664.54 245.45 654.05 231.96
  Q 653.69 231.50 653.22 231.23
  A 0.35 0.35 0.0 0 0 652.72 231.66
  Q 658.68 246.19 659.22 261.69
  Q 660.79 307.08 635.89 343.49
  Q 623.13 362.15 603.64 374.51
  Q 594.42 380.35 582.18 384.67
  Q 570.92 388.63 559.23 390.68
  Q 548.04 392.64 544.00 393.12
  Q 515.75 396.43 487.00 395.00
  Q 477.91 394.55 470.52 392.94
  C 442.15 386.74 420.72 364.77 422.03 334.90
  C 423.28 306.43 447.30 286.04 472.64 277.27
  C 486.53 272.46 502.30 271.33 517.25 272.17
  Q 541.39 273.52 564.24 272.94
  C 578.97 272.57 592.65 270.82 605.38 264.65
  C 615.14 259.91 624.32 251.54 628.75 241.65
  Q 635.71 226.14 629.24 209.22
  A 4.58 4.56 9.2 0 0 627.83 207.28
  Q 596.47 182.05 556.79 173.41
  Q 521.93 165.82 487.48 171.27
  Q 432.72 179.94 391.38 216.87
  Q 365.00 240.44 350.31 273.29
  Q 347.51 279.56 347.12 281.14
  A 0.67 0.65 -13.2 0 1 346.87 281.53
  L 346.84 281.56
  A 1.29 1.26 -22.9 0 0 346.37 282.68
  Q 346.50 283.88 345.74 284.51
  A 0.56 0.54 69.4 0 0 345.55 284.95
  Q 345.56 285.40 342.76 294.63
  C 341.37 299.21 340.47 303.96 339.66 308.09
  C 334.51 334.41 337.38 362.67 346.50 388.02
  Q 349.86 397.37 355.05 406.35
  A 0.20 0.20 0.0 0 0 355.41 406.20"
/>
<path stroke="#838383" vector-effect="non-scaling-stroke" d="
  M 597.9091 328.5128
  A 17.71 17.71 0.0 0 0 580.1682 310.8337
  L 469.8283 311.0263
  A 17.71 17.71 0.0 0 0 452.1493 328.7672
  L 452.1509 329.7272
  A 17.71 17.71 0.0 0 0 469.8918 347.4063
  L 580.2317 347.2137
  A 17.71 17.71 0.0 0 0 597.9107 329.4728
  L 597.9091 328.5128"
/>
<path stroke="#838383" vector-effect="non-scaling-stroke" d="
  M 589.34 413.30
  C 571.77 421.90 553.52 428.05 534.74 430.82
  Q 525.53 432.18 513.99 432.74
  Q 502.85 433.29 488.77 431.24
  Q 487.28 431.02 484.09 429.17
  A 5.05 4.91 -0.1 0 1 482.40 427.53
  L 479.73 423.27
  A 4.41 4.23 -84.4 0 0 479.18 422.57
  C 471.23 414.30 458.33 411.29 447.97 416.46
  C 430.82 425.02 428.85 447.49 444.72 458.53
  Q 445.49 459.07 449.59 461.39
  A 4.47 4.31 -21.6 0 0 450.54 461.78
  C 461.97 464.79 472.70 461.65 480.30 452.64
  Q 482.88 449.58 488.08 448.76
  A 1.63 1.37 38.6 0 1 488.47 448.75
  C 524.45 452.42 560.42 445.60 593.10 429.60
  C 621.62 415.62 647.61 393.41 660.54 364.59
  C 664.54 355.69 666.02 346.77 666.13 336.80
  A 0.25 0.25 0.0 0 0 665.64 336.73
  Q 664.39 341.23 662.56 344.55
  Q 655.40 357.51 646.94 367.69
  Q 626.59 392.15 599.51 407.79
  Q 593.46 411.28 589.34 413.30"
/>
</g>
<path fill="#fdfdfd" d="
  M 1024.00 0.00
  L 1024.00 683.00
  L 0.00 683.00
  L 0.00 0.00
  L 1024.00 0.00
  Z
  M 355.41 406.20
  C 353.62 400.13 352.16 396.44 351.06 391.20
  C 344.41 359.48 350.08 328.44 366.49 300.59
  Q 366.72 300.20 367.55 298.56
  Q 368.44 296.81 369.41 295.37
  Q 385.39 271.82 405.59 255.60
  Q 442.12 226.26 487.74 216.21
  Q 491.58 215.37 501.95 213.60
  C 504.81 213.11 508.45 211.66 509.84 209.60
  Q 515.26 201.57 523.57 199.36
  Q 538.02 195.51 548.32 205.00
  C 559.09 214.92 557.35 232.61 546.10 240.94
  C 535.79 248.58 519.35 247.40 511.34 236.46
  C 507.33 230.98 502.50 230.63 496.39 231.61
  Q 485.27 233.40 473.56 237.27
  C 432.68 250.78 395.26 279.33 376.24 318.50
  C 360.36 351.19 358.32 389.60 375.67 422.10
  Q 385.75 441.00 398.25 452.97
  Q 444.76 497.49 509.81 500.02
  Q 564.55 502.14 610.06 473.43
  C 646.49 450.45 673.63 414.37 684.27 372.77
  Q 695.65 328.30 682.71 285.50
  Q 677.98 269.86 671.07 257.31
  Q 664.54 245.45 654.05 231.96
  Q 653.69 231.50 653.22 231.23
  A 0.35 0.35 0.0 0 0 652.72 231.66
  Q 658.68 246.19 659.22 261.69
  Q 660.79 307.08 635.89 343.49
  Q 623.13 362.15 603.64 374.51
  Q 594.42 380.35 582.18 384.67
  Q 570.92 388.63 559.23 390.68
  Q 548.04 392.64 544.00 393.12
  Q 515.75 396.43 487.00 395.00
  Q 477.91 394.55 470.52 392.94
  C 442.15 386.74 420.72 364.77 422.03 334.90
  C 423.28 306.43 447.30 286.04 472.64 277.27
  C 486.53 272.46 502.30 271.33 517.25 272.17
  Q 541.39 273.52 564.24 272.94
  C 578.97 272.57 592.65 270.82 605.38 264.65
  C 615.14 259.91 624.32 251.54 628.75 241.65
  Q 635.71 226.14 629.24 209.22
  A 4.58 4.56 9.2 0 0 627.83 207.28
  Q 596.47 182.05 556.79 173.41
  Q 521.93 165.82 487.48 171.27
  Q 432.72 179.94 391.38 216.87
  Q 365.00 240.44 350.31 273.29
  Q 347.51 279.56 347.12 281.14
  A 0.67 0.65 -13.2 0 1 346.87 281.53
  L 346.84 281.56
  A 1.29 1.26 -22.9 0 0 346.37 282.68
  Q 346.50 283.88 345.74 284.51
  A 0.56 0.54 69.4 0 0 345.55 284.95
  Q 345.56 285.40 342.76 294.63
  C 341.37 299.21 340.47 303.96 339.66 308.09
  C 334.51 334.41 337.38 362.67 346.50 388.02
  Q 349.86 397.37 355.05 406.35
  A 0.20 0.20 0.0 0 0 355.41 406.20
  Z
  M 597.9091 328.5128
  A 17.71 17.71 0.0 0 0 580.1682 310.8337
  L 469.8283 311.0263
  A 17.71 17.71 0.0 0 0 452.1493 328.7672
  L 452.1509 329.7272
  A 17.71 17.71 0.0 0 0 469.8918 347.4063
  L 580.2317 347.2137
  A 17.71 17.71 0.0 0 0 597.9107 329.4728
  L 597.9091 328.5128
  Z"
/>
<path fill="#090909" d="
  M 355.41 406.20
  A 0.20 0.20 0.0 0 1 355.05 406.35
  Q 349.86 397.37 346.50 388.02
  C 337.38 362.67 334.51 334.41 339.66 308.09
  C 340.47 303.96 341.37 299.21 342.76 294.63
  Q 345.56 285.40 345.55 284.95
  A 0.56 0.54 69.4 0 1 345.74 284.51
  Q 346.50 283.88 346.37 282.68
  A 1.29 1.26 -22.9 0 1 346.84 281.56
  L 346.87 281.53
  A 0.67 0.65 -13.2 0 0 347.12 281.14
  Q 347.51 279.56 350.31 273.29
  Q 365.00 240.44 391.38 216.87
  Q 432.72 179.94 487.48 171.27
  Q 521.93 165.82 556.79 173.41
  Q 596.47 182.05 627.83 207.28
  A 4.58 4.56 9.2 0 1 629.24 209.22
  Q 635.71 226.14 628.75 241.65
  C 624.32 251.54 615.14 259.91 605.38 264.65
  C 592.65 270.82 578.97 272.57 564.24 272.94
  Q 541.39 273.52 517.25 272.17
  C 502.30 271.33 486.53 272.46 472.64 277.27
  C 447.30 286.04 423.28 306.43 422.03 334.90
  C 420.72 364.77 442.15 386.74 470.52 392.94
  Q 477.91 394.55 487.00 395.00
  Q 515.75 396.43 544.00 393.12
  Q 548.04 392.64 559.23 390.68
  Q 570.92 388.63 582.18 384.67
  Q 594.42 380.35 603.64 374.51
  Q 623.13 362.15 635.89 343.49
  Q 660.79 307.08 659.22 261.69
  Q 658.68 246.19 652.72 231.66
  A 0.35 0.35 0.0 0 1 653.22 231.23
  Q 653.69 231.50 654.05 231.96
  Q 664.54 245.45 671.07 257.31
  Q 677.98 269.86 682.71 285.50
  Q 695.65 328.30 684.27 372.77
  C 673.63 414.37 646.49 450.45 610.06 473.43
  Q 564.55 502.14 509.81 500.02
  Q 444.76 497.49 398.25 452.97
  Q 385.75 441.00 375.67 422.10
  C 358.32 389.60 360.36 351.19 376.24 318.50
  C 395.26 279.33 432.68 250.78 473.56 237.27
  Q 485.27 233.40 496.39 231.61
  C 502.50 230.63 507.33 230.98 511.34 236.46
  C 519.35 247.40 535.79 248.58 546.10 240.94
  C 557.35 232.61 559.09 214.92 548.32 205.00
  Q 538.02 195.51 523.57 199.36
  Q 515.26 201.57 509.84 209.60
  C 508.45 211.66 504.81 213.11 501.95 213.60
  Q 491.58 215.37 487.74 216.21
  Q 442.12 226.26 405.59 255.60
  Q 385.39 271.82 369.41 295.37
  Q 368.44 296.81 367.55 298.56
  Q 366.72 300.20 366.49 300.59
  C 350.08 328.44 344.41 359.48 351.06 391.20
  C 352.16 396.44 353.62 400.13 355.41 406.20
  Z
  M 589.34 413.30
  C 571.77 421.90 553.52 428.05 534.74 430.82
  Q 525.53 432.18 513.99 432.74
  Q 502.85 433.29 488.77 431.24
  Q 487.28 431.02 484.09 429.17
  A 5.05 4.91 -0.1 0 1 482.40 427.53
  L 479.73 423.27
  A 4.41 4.23 -84.4 0 0 479.18 422.57
  C 471.23 414.30 458.33 411.29 447.97 416.46
  C 430.82 425.02 428.85 447.49 444.72 458.53
  Q 445.49 459.07 449.59 461.39
  A 4.47 4.31 -21.6 0 0 450.54 461.78
  C 461.97 464.79 472.70 461.65 480.30 452.64
  Q 482.88 449.58 488.08 448.76
  A 1.63 1.37 38.6 0 1 488.47 448.75
  C 524.45 452.42 560.42 445.60 593.10 429.60
  C 621.62 415.62 647.61 393.41 660.54 364.59
  C 664.54 355.69 666.02 346.77 666.13 336.80
  A 0.25 0.25 0.0 0 0 665.64 336.73
  Q 664.39 341.23 662.56 344.55
  Q 655.40 357.51 646.94 367.69
  Q 626.59 392.15 599.51 407.79
  Q 593.46 411.28 589.34 413.30
  Z"
/>
<rect fill="#090909" x="-72.88" y="-18.19" transform="translate(525.03,329.12) rotate(-0.1)" width="145.76" height="36.38" rx="17.71"/>
<path fill="#fdfdfd" d="
  M 589.34 413.30
  Q 593.46 411.28 599.51 407.79
  Q 626.59 392.15 646.94 367.69
  Q 655.40 357.51 662.56 344.55
  Q 664.39 341.23 665.64 336.73
  A 0.25 0.25 0.0 0 1 666.13 336.80
  C 666.02 346.77 664.54 355.69 660.54 364.59
  C 647.61 393.41 621.62 415.62 593.10 429.60
  C 560.42 445.60 524.45 452.42 488.47 448.75
  A 1.63 1.37 38.6 0 0 488.08 448.76
  Q 482.88 449.58 480.30 452.64
  C 472.70 461.65 461.97 464.79 450.54 461.78
  A 4.47 4.31 -21.6 0 1 449.59 461.39
  Q 445.49 459.07 444.72 458.53
  C 428.85 447.49 430.82 425.02 447.97 416.46
  C 458.33 411.29 471.23 414.30 479.18 422.57
  A 4.41 4.23 -84.4 0 1 479.73 423.27
  L 482.40 427.53
  A 5.05 4.91 -0.1 0 0 484.09 429.17
  Q 487.28 431.02 488.77 431.24
  Q 502.85 433.29 513.99 432.74
  Q 525.53 432.18 534.74 430.82
  C 553.52 428.05 571.77 421.90 589.34 413.30
  Z"
/>
</svg>
